<mxfile host="app.diagrams.net" modified="2022-05-16T09:58:12.794Z" agent="5.0 (Macintosh; Intel Mac OS X 10_15_7) AppleWebKit/537.36 (KHTML, like Gecko) Chrome/101.0.4951.64 Safari/537.36" etag="OGiMVC4-yHZ84-3LLkit" version="18.0.5" type="github">
  <diagram id="Ct3bF83Xtm8TdACFRR2W" name="Page-1">
    <mxGraphModel dx="1186" dy="707" grid="1" gridSize="10" guides="1" tooltips="1" connect="1" arrows="1" fold="1" page="1" pageScale="1" pageWidth="827" pageHeight="1169" math="0" shadow="0">
      <root>
        <mxCell id="0" />
        <mxCell id="1" parent="0" />
        <mxCell id="meCOWXKg2S3lBbydEQQq-1" value="" style="rounded=1;whiteSpace=wrap;html=1;" vertex="1" parent="1">
          <mxGeometry x="20" y="140" width="870" height="590" as="geometry" />
        </mxCell>
        <mxCell id="meCOWXKg2S3lBbydEQQq-2" value="" style="rounded=1;whiteSpace=wrap;html=1;dashed=1;" vertex="1" parent="1">
          <mxGeometry x="40" y="160" width="830" height="550" as="geometry" />
        </mxCell>
        <mxCell id="meCOWXKg2S3lBbydEQQq-3" value="" style="rounded=1;whiteSpace=wrap;html=1;" vertex="1" parent="1">
          <mxGeometry x="70" y="180" width="340" height="500" as="geometry" />
        </mxCell>
        <mxCell id="meCOWXKg2S3lBbydEQQq-4" value="" style="rounded=1;whiteSpace=wrap;html=1;" vertex="1" parent="1">
          <mxGeometry x="530" y="180" width="320" height="510" as="geometry" />
        </mxCell>
        <mxCell id="meCOWXKg2S3lBbydEQQq-5" value="" style="rounded=0;whiteSpace=wrap;html=1;" vertex="1" parent="1">
          <mxGeometry x="100" y="210" width="260" height="120" as="geometry" />
        </mxCell>
        <mxCell id="meCOWXKg2S3lBbydEQQq-6" value="" style="rounded=0;whiteSpace=wrap;html=1;" vertex="1" parent="1">
          <mxGeometry x="100" y="360" width="260" height="120" as="geometry" />
        </mxCell>
        <mxCell id="meCOWXKg2S3lBbydEQQq-7" value="" style="rounded=0;whiteSpace=wrap;html=1;" vertex="1" parent="1">
          <mxGeometry x="100" y="520" width="270" height="120" as="geometry" />
        </mxCell>
        <mxCell id="meCOWXKg2S3lBbydEQQq-9" value="" style="rounded=0;whiteSpace=wrap;html=1;" vertex="1" parent="1">
          <mxGeometry x="567" y="210" width="260" height="120" as="geometry" />
        </mxCell>
        <mxCell id="meCOWXKg2S3lBbydEQQq-10" value="" style="rounded=0;whiteSpace=wrap;html=1;" vertex="1" parent="1">
          <mxGeometry x="567" y="360" width="260" height="120" as="geometry" />
        </mxCell>
        <mxCell id="meCOWXKg2S3lBbydEQQq-11" value="" style="rounded=0;whiteSpace=wrap;html=1;" vertex="1" parent="1">
          <mxGeometry x="567" y="520" width="260" height="120" as="geometry" />
        </mxCell>
      </root>
    </mxGraphModel>
  </diagram>
</mxfile>
